<?xml version="1.0" encoding="utf-8"?>
<!-- Generator: Adobe Illustrator 19.0.0, SVG Export Plug-In . SVG Version: 6.00 Build 0)  -->
<svg version="1.1" id="Calque_4" xmlns="http://www.w3.org/2000/svg" xmlns:xlink="http://www.w3.org/1999/xlink" x="0px" y="0px"
	 viewBox="0 0 595.3 841.9" style="enable-background:new 0 0 595.3 841.9;" xml:space="preserve">
<style type="text/css">
	.st0{fill:#CDAA5C;}
	.st1{fill:none;stroke:#4D4D48;stroke-width:5;stroke-miterlimit:10;}
	.st2{fill:none;stroke:#4D4D48;stroke-width:3;stroke-linecap:round;stroke-linejoin:round;}
	.st3{fill:#4D4D48;stroke:#4D4D48;stroke-width:3;stroke-miterlimit:10;}
	.st4{fill:#4D4D48;}
	.st5{fill:none;stroke:#4D4D48;stroke-width:2;stroke-miterlimit:10;}
	.st6{fill:none;stroke:#4D4D48;stroke-width:3;stroke-miterlimit:10;}
</style>
<g id="contour_x2B_avion_2_">
	<g id="XMLID_329_">
		<g id="XMLID_817_">
			<path id="XMLID_66_" class="st0" d="M580.4,228l0.1,558.5c-19.5,0.6-38.1,19.4-44.9,43.9h-51.4
				c-59.5-14.1-180.4-68.6-178.4-277.2c1.3,1.3,133.4,60,133.4,60v-17.4l-132.1-95.4c0,0,2-109.9-14.5-110.6
				c-16.4-0.7-17.1,110.6-17.1,110.6l-115.8,96.1v16.4L276.2,553c0,0,11.9,239.4-159.9,277.4H59.7c-6.8-24.4-25.4-43.2-45-43.9
				l0.1-376.4h0l0-114l0-68.2L15,68.1c19.5-0.4,38.1-11.9,44.9-26.9c26.3,7.5,50.7,8.8,78.2,5.5c37.6-4.9,41-13.4,71-27.3
				c16.6-8,37-10.4,59.1-5.2c11.8,3,21.8,11.1,29.4,19.1c7.6-8,17.6-16.2,29.4-19.1c22.1-5.2,42.5-2.8,59.1,5.2
				c30,13.9,33.4,22.3,71,27.3c27.5,3.3,51.9,2,78.2-5.5c6.8,15,25.4,26.5,44.9,26.9L580.4,228C580.4,228,580.4,228,580.4,228z"/>
		</g>
		<g id="XMLID_815_">
			<path id="XMLID_67_" class="st1" d="M580.4,228C580.4,228,580.4,228,580.4,228l-0.1-159.9c-19.5-0.4-38.1-11.9-44.9-26.9
				c-26.3,7.5-50.7,8.8-78.2,5.5c-37.6-4.9-41-13.4-71-27.3c-16.6-8-37-10.4-59.1-5.2c-11.8,3-21.8,11.1-29.4,19.1
				c-7.6-8-17.6-16.2-29.4-19.1c-22.1-5.2-42.5-2.8-59.1,5.2c-30,13.9-33.4,22.3-71,27.3c-27.5,3.3-51.9,2-78.2-5.5
				c-6.8,15-25.4,26.5-44.9,26.9L14.9,228l0,68.2l0,114h0l-0.1,376.4c19.5,0.6,38.1,19.4,45,43.9h56.6
				C288.1,792.5,276.2,553,276.2,553l-116.5,59.9v-16.4l115.8-96.1c0,0,0.7-111.2,17.1-110.6c16.4,0.6,14.5,110.6,14.5,110.6
				l132.1,95.4v17.4c0,0-132.1-58.7-133.4-60c-2,208.6,118.9,263,178.4,277.2h51.4c6.8-24.4,25.4-43.2,44.9-43.9L580.4,228z"/>
		</g>
	</g>
</g>
<g id="trais_internes_1_">
	<path id="XMLID_603_" class="st2" d="M30.9,172.6V83.1c14.1-3.7,26.8-11.6,35.5-22c14.6,3.3,28.9,4.8,43.8,4.8
		c5.9,0,11.8-0.2,17.9-0.7"/>
	<path id="XMLID_602_" class="st2" d="M245.1,28.8c5.9,0.1,12,0.8,18.1,2.3c10,2.4,19.3,11.8,27.9,21.3l5.5,6l5.5-6
		c8.6-9.5,17.9-18.9,27.9-21.3c6.1-1.5,12.2-2.3,18.1-2.3"/>
	<path id="XMLID_601_" class="st2" d="M465.2,65.2c6.1,0.5,12,0.7,17.9,0.7c14.8,0,29.2-1.6,43.8-4.8c8.7,10.4,21.4,18.2,35.5,22
		v89.6"/>
	<path id="XMLID_599_" class="st2" d="M562.4,687.7v89.7c-14,3.7-35.2,31.6-35.5,41.1c-0.5,0-17.1,0-17.1,0"/>
	<path id="XMLID_451_" class="st2" d="M30.7,687.7v89.7c14,3.7,35.2,31.6,35.5,41.1c0.5,0,17.1,0,17.1,0"/>
</g>
<g id="XMLID_788_">
	<path id="XMLID_802_" class="st3" d="M120,225.4l-50-120.1l2.7-0.5l47.2,112.8l11-124l2.7-0.5L122,225L120,225.4z"/>
	<path id="XMLID_800_" class="st3" d="M149.5,91l3.4-0.5l18.6,126l-3.4,0.5L149.5,91z"/>
	<path id="XMLID_798_" class="st3" d="M178.4,95.7L191,213.6l-3.4,0.4L174,87.2l3.8-0.4L239,202.4L226.1,81.7l3.1-0.3L242.7,208
		l-4.1,0.4L178.4,95.7z"/>
	<path id="XMLID_796_" class="st3" d="M285.5,205.8l-3.5,0.1l-5.4-126.3L251,80.7l0-1l53.6-2.3l0,1l-24.6,1.1L285.5,205.8z"/>
	<path id="XMLID_793_" class="st3" d="M358,152.2l-33.6-0.5l-13.6,53l-2.8,0l13.6-53l-15.2-0.2l0-0.8l15.9,0.2l19.8-73.1l2.1,0
		l28.3,127.8l-1.7,0L358,152.2z M324.5,150.9l33.3,0.5l-14.6-68.9L324.5,150.9z"/>
	<path id="XMLID_791_" class="st3" d="M389.1,203.9c-5.1-2.6-7.5-5.4-7.2-8.6L392.1,90c0.3-3.4,3.1-5.7,8.3-7
		c5.2-1.2,10.9-1.6,17.2-1.3c0.5,0,0.9,0.1,1.4,0.1c0.5,0,0.9,0.1,1.4,0.1c7.4,0.7,13.5,2.2,18.5,4.5c5,2.3,7.3,5.2,7,8.6l-1.4,14.4
		l-2.4-0.2l1.4-14.4c0-0.3,0-0.7-0.1-1.1c-0.1-0.4-0.2-0.8-0.4-1.2c-1.2-2.1-3.8-4.1-7.8-6c-4-2-9-3.2-14.9-3.8
		c-7.1-0.7-13.1-0.3-17.9,1.1c-4.8,1.4-7.3,3.5-7.6,6.3l-10.2,105.3c-0.3,3.1,1.8,5.7,6.4,7.8c4.5,2.1,9.9,3.5,16.1,4.1
		c7.4,0.7,13.5,0.4,18.5-0.9c5-1.3,7.6-3.4,7.9-6.4l4-41.9l-17.6-1.7l0.1-0.8c1.1,0.1,2.5,0.2,4.1,0.4c1.6,0.2,3.8,0.4,6.6,0.6
		c1.1,0.1,2.5,0.2,4.1,0.4c1.6,0.2,3.2,0.3,4.8,0.5l-4.1,42.9c-0.3,3.3-3.4,5.7-9.2,7.1c-5.8,1.4-12.4,1.8-19.8,1.1
		C400.1,208.1,394.2,206.5,389.1,203.9z"/>
	<path id="XMLID_789_" class="st3" d="M472.9,163.5l-16.7-3.2l0.2-0.8l16.3,3.2l13.9-72l48.6,9.4l-0.2,0.9l-45.2-8.8l-13.8,71.1
		l46.6,9l-0.2,0.8l-46.6-9l-9.9,51.3l46.6,9l-0.2,0.9l-49.7-9.6L472.9,163.5z"/>
</g>
<g id="XMLID_777_">
	<path id="XMLID_786_" class="st3" d="M222.7,353.1l-41.4-113.5l-9,121l-2.1,0.3l-44.4-122.2l3.1-0.5l41.7,113.1l8-120.5l3.4-0.5
		l40.7,111.2l8-118.4l2.4-0.4l-8.7,130.1L222.7,353.1z"/>
	<path id="XMLID_784_" class="st3" d="M253.6,223.1l3.5-0.2l7.3,127.2l-3.5,0.2L253.6,223.1z"/>
	<path id="XMLID_782_" class="st3" d="M283.9,230.3l-0.6,118.5l-3.5,0l0.6-127.4l3.8,0l47.9,121.7l0.6-121.4l3.1,0l-0.6,127.4
		l-4.2,0L283.9,230.3z"/>
	<path id="XMLID_780_" class="st3" d="M353.4,347.3c-5.1-2.7-7.4-5.5-7.1-8.6l11.4-105.2c0.4-3.4,3.2-5.7,8.4-6.9
		c5.2-1.2,11-1.5,17.2-1c0.5,0,0.9,0.1,1.4,0.2c0.5,0,0.9,0.1,1.4,0.2c7.3,0.8,13.5,2.4,18.5,4.8c5,2.4,7.3,5.3,6.9,8.7l-1.6,14.4
		l-2.4-0.3l1.6-14.4c0-0.3,0-0.7-0.1-1.1c-0.1-0.4-0.2-0.8-0.4-1.2c-1.2-2.1-3.7-4.1-7.7-6.1c-4-2-8.9-3.3-14.9-4
		c-7.1-0.8-13.1-0.5-17.9,0.9c-4.8,1.4-7.3,3.4-7.6,6.2L349.1,339c-0.3,3.1,1.8,5.7,6.3,7.9c4.5,2.2,9.9,3.6,16.1,4.3
		c7.3,0.8,13.5,0.6,18.5-0.7c5-1.2,7.7-3.4,8-6.3l4.6-41.8l-17.6-1.9l0.1-0.8c1.1,0.1,2.5,0.3,4.1,0.4c1.6,0.2,3.8,0.4,6.5,0.7
		c1.1,0.1,2.5,0.3,4.1,0.4c1.6,0.2,3.2,0.4,4.8,0.5l-4.7,42.8c-0.4,3.3-3.5,5.7-9.3,7c-5.8,1.4-12.4,1.6-19.8,0.8
		C364.3,351.6,358.5,350,353.4,347.3z"/>
	<path id="XMLID_778_" class="st3" d="M487.1,254.7c0.6-2.5-1.3-5.3-5.4-8.3c-4.2-3-9.5-5.2-16.1-6.7c-0.7-0.2-1.4-0.3-2-0.4
		c-0.7-0.1-1.4-0.2-2-0.4c-5.3-0.7-10.2-0.8-14.9-0.1c-4.6,0.6-7.3,2.3-7.9,5l-11.6,52.8c-0.8,3.5,0.8,6.4,4.6,8.9
		c3.8,2.4,8.2,4.4,13.1,5.8c0.7,0.3,1.4,0.5,2.2,0.6c0.8,0.2,1.5,0.3,2.2,0.5c0.7,0.1,1.4,0.3,2,0.4c0.7,0.1,1.3,0.4,2,0.6
		c4.7,1.3,8.9,3,12.7,5.2c3.8,2.2,5.3,4.9,4.6,8l-6.8,31c-0.6,2.9-3.7,4.8-9.2,5.7c-5.5,0.9-11.9,0.6-19.2-0.8
		c-7.9-1.7-14-4.2-18.2-7.5c-4.3-3.2-6.1-6.2-5.5-8.8l3-13.7l2.4,0.5l-3,13.5c-0.6,2.7,1.1,5.5,5.1,8.4c4,2.9,9.5,5.1,16.5,6.6
		c6.5,1.4,12.4,1.8,17.5,1c5.1-0.8,8-2.7,8.7-5.6l6.8-30.9c0.7-3-1-5.7-5-7.9c-4-2.2-8.7-4-14.1-5.3c-1.6-0.3-3.2-0.8-4.9-1.2
		c-1.7-0.5-3.4-1-5.1-1.6c-4.2-1.5-7.9-3.4-11.2-5.7c-3.3-2.3-4.5-5.2-3.8-8.5l11.6-52.8c0.6-2.8,3.1-4.6,7.4-5.4
		c4.3-0.8,8.9-0.9,13.7-0.4c1.4,0.1,2.8,0.3,4.1,0.5c1.4,0.2,2.6,0.5,3.7,0.7c0.2,0,0.4,0.1,0.7,0.1c7.2,1.7,13.1,4,17.6,7
		c4.5,3,6.5,6,5.8,9l-3,13.5l-2-0.4L487.1,254.7z"/>
</g>
<g id="fleuriture_aile_1_">
	<g id="gauche_1_">
		<g id="XMLID_328_">
			<g id="XMLID_352_">
				<path id="XMLID_57_" class="st4" d="M565.2,425.1c0.2,0.4,0.3,0.9,0.2,1.4c0,0.3-0.1,0.5-0.2,0.7c-0.6,1.1-2.3,1.7-3.4,1.1
					c-1-0.5-1.6-1.5-1.7-2.6c0.1-0.4,0.1-0.6,0.1-0.6c0.3-1.1,1.4-1.8,2.5-1.8C563.8,423.3,564.8,424.1,565.2,425.1z"/>
				<path id="XMLID_56_" class="st4" d="M565.1,408.5c0.5,0.7,0.6,1.6,0.3,2.4c-0.3,0.8-0.9,1.4-1.8,1.6c-1.7,0.3-3.4-1.7-2.7-3.3
					C561.4,407.5,564,407.1,565.1,408.5z"/>
				<path id="XMLID_55_" class="st4" d="M565.2,441.2c0,0.5,0,0.9-0.2,1.4c-0.4,1-1.5,1.7-2.6,1.8c-1.1,0-2.2-0.7-2.5-1.8
					c0,0,0-0.2-0.2-0.6c0.1-1.1,0.7-2.1,1.7-2.6c1.2-0.6,2.9,0,3.5,1C565.1,440.7,565.2,440.9,565.2,441.2z"/>
				<path id="XMLID_54_" class="st4" d="M565.1,456.8c0.3,0.8,0.2,1.7-0.3,2.4c-1.1,1.4-3.6,1-4.2-0.7c-0.6-1.6,1.1-3.6,2.8-3.3
					C564.2,455.3,564.8,456,565.1,456.8z"/>
				<path id="XMLID_53_" class="st4" d="M564.2,392.8c0.7,0.4,0.9,1.3,0.8,2c-0.1,0.4-0.3,0.7-0.6,0.9c-0.6,0.4-1.6,0.4-2.2-0.1
					c-0.6-0.4-1.3-1.1-1.3-1.9C561,392.5,563.1,392.1,564.2,392.8z"/>
				<path id="XMLID_52_" class="st4" d="M564.7,472.8c0.2,0.7-0.1,1.6-0.8,2.1c-1.1,0.7-3.2,0.3-3.3-1c-0.1-0.8,0.6-1.5,1.3-1.9
					c0.6-0.4,1.6-0.5,2.2,0C564.4,472.1,564.6,472.5,564.7,472.8z"/>
				<path id="XMLID_51_" class="st4" d="M563.9,377.7c0.2,0.2,0.3,0.6,0.3,0.9c-0.1,0.3-0.3,0.6-0.6,0.8c-0.7,0.3-1.5-0.4-1.4-1.2
					C562.3,377.4,563.4,377.1,563.9,377.7z"/>
				<path id="XMLID_50_" class="st4" d="M563.9,489c0.1,0.3,0,0.7-0.2,0.9c-0.5,0.5-1.6,0.2-1.7-0.5c-0.2-0.7,0.7-1.4,1.4-1.2
					C563.7,488.4,563.9,488.7,563.9,489z"/>
				<path id="XMLID_49_" class="st4" d="M563.2,272.1h-0.2c0-4.4-0.1-8.9-1-13.2c-0.2-1-0.5-1.9-0.8-2.9c-0.1-6-0.1-12-0.3-18
					c-0.1-3-0.1-5.9-0.2-8.9c-0.1-3.9-0.3-7.9-1.3-11.7c-1-4-3.8-9.9-8.4-10.4c-0.4-0.6-0.8-1.1-1.3-1.7l0-0.2
					c10-1.7,12.4,13.2,12.8,20.2c0.2,3.6,0.3,7.2,0.4,10.9C562.9,248.2,563.1,260.2,563.2,272.1z"/>
				<path id="XMLID_48_" class="st4" d="M563.1,598.2c0,3.2,0,6.5-0.1,9.7c-0.1,9.8-0.2,19.5-0.4,29.3c-0.1,4.8-0.2,9.6-1,14.3
					c-1.1,6.3-5.3,16-13.3,14.2c-0.7-0.2-0.4-1.1-0.1-1.5c2.9-3.4,4.9-7.3,6.1-11.5c0.5-0.1,0.9-0.3,1.4-0.5
					c-0.4-0.3-0.7-0.6-1.1-0.9c-0.1,0.5-0.2,0.9-0.4,1.4c-0.9,0.2-1.8,0.3-3,0.1c-0.6-0.1-0.8-0.7-0.5-1.3c2.1-3.3,3.9-6.6,5.4-10.1
					c0.5-0.1,0.9-0.3,1.4-0.5l-0.8-0.9c-0.2,0.5-0.4,0.9-0.6,1.4c-1.4,0.5-2.8,0.9-4.2,1.4c-0.8,0.3-1-0.6-0.7-1.2c1-2,2-4.1,3-6.1
					c0.5-1,1.1-2,1.5-3.1c0.3-0.5,0.4-1,0.3-1.6c0.3-1,0.2-1.2-0.3-0.7c-1.2,0-1.7,1.8-3.1,0.6c-0.2-0.2-0.2-0.5-0.1-0.8
					c1.5-6.3,6-11.3,7.6-17.5c0.5-1.9,0.8-3.8,1-5.8c0,2.6,0,5.1-0.1,7.7c-0.9,2.9-2.3,5.7-3.8,8.5c-0.9,1.7-2.3,3.7-2.6,5.5
					c-0.2,1.5,0,0.7,1,0.1c0.8-0.4,1.8-0.9,2.6-0.2c1.1,1.1-0.1,3.1-0.6,4.1c-1.3,2.7-2.6,5.4-3.9,8c-0.5,0.2-1,0.3-1.5,0.5
					c0.2,0.4,0.5,0.8,0.7,1.2c0.3-0.6,0.5-1.1,0.8-1.7c1.4-0.4,2.7-0.9,4.1-1.4c0.6-0.2,1,0.4,0.8,1c-1.5,3.8-3.3,7.5-5.5,11
					c-0.4,0-0.8,0-1.2-0.1c0.1,0.4,0.3,0.8,0.5,1.3c0.2-0.4,0.5-0.7,0.7-1.1c0.8,0,1.5-0.1,2.3-0.5c0.7-0.3,1.2,0.1,1.1,0.9
					c-1.1,4.6-3.2,8.8-6,12.6c-0.4,0-0.7,0-1.1-0.1c0,0.5,0,1,0.1,1.5c0.4-0.4,0.7-0.9,1-1.3c7,0.5,9.3-10.5,9.7-15.7
					c0.2-2.5,0.3-5,0.4-7.5c0.1-3.9,0.2-7.7,0.3-11.6c0.1-4.9,0.1-9.8,0.2-14.8c0.5-1.3,0.8-2.7,1.1-4.2c0.7-3.9,0.8-7.9,0.8-11.9
					H563.1z"/>
				<path id="XMLID_47_" class="st4" d="M561.1,256.1c0,2.9,0,5.9,0.1,8.8c-0.2-2-0.5-4-1-6c-1.6-6.3-6.1-11.2-7.6-17.5
					c-0.1-0.4,0.2-0.9,0.5-1.1c1.5-1.4,1.8,0.4,3.2,0.4c0.8,0-0.2-1.2-0.5-1.8c-0.5-1-1-2-1.5-3.1c-1-2-2-4.1-3-6.1
					c-0.3-0.7,0.5-1.9,1.3-1.6c0.1,0,0.2,0.1,0.4,0.1l0,0.1c-0.4,0.5-0.9,1.1-1.3,1.6c0.8,0.3,1.7,0.6,2.5,0.9
					c1.1,2.2,2.1,4.4,3.2,6.7c0.5,1.1,1.6,2.6,1.2,3.9c-0.2,0.8-0.9,1.5-1.8,1.6c-0.4,0-1.3-0.5-2-0.9c-0.2-0.5-0.3-1.1-0.5-1.7
					c-0.2,0.4-0.3,0.7-0.5,1.1c0,0,0.5,0.2,1,0.5C556.2,247.1,559.3,251.3,561.1,256.1z"/>
				<path id="XMLID_46_" class="st4" d="M558.6,230.3c0.3,0.7-0.5,2-1.4,1.7c-0.1,0-0.2-0.1-0.4-0.1l0-0.1c0.4-0.5,0.9-1.1,1.4-1.6
					c-0.8-0.3-1.6-0.5-2.4-0.8c-1.4-3.3-3.2-6.4-5.1-9.4c-0.4-0.6,0.3-1.6,0.9-1.7c0.9-0.1,1.6-0.2,2.3-0.1c0.2,0.7,0.4,1.3,0.6,2
					c0.5-0.5,1-1,1.4-1.5c-0.7-0.3-1.4-0.5-2-0.6c-1.2-4-3.2-7.7-6-11c-0.5-0.6,0-1.7,0.8-1.8c0.2,0,0.4-0.1,0.6-0.1l0,0.2
					c-0.2,0.6-0.5,1.2-0.8,1.8c0.7-0.2,1.5-0.2,2.1-0.1c2.7,3.6,4.6,7.6,5.7,12.1c0.2,0.7-0.7,1.8-1.4,1.5c-0.5-0.2-1-0.4-1.5-0.5
					c-0.3-0.6-0.7-1.1-1-1.7c-0.3,0.6-0.6,1.1-0.9,1.7c0.7-0.1,1.3-0.1,1.9,0C555.5,223.4,557.2,226.8,558.6,230.3z"/>
				<path id="XMLID_32_" class="st4" d="M555.9,229.2c0.4,0.8,0.7,1.6,1.1,2.5l0,0.1c-0.9-0.3-1.8-0.6-2.7-0.9
					c-0.4-0.8-0.8-1.7-1.2-2.5l0-0.1C554,228.6,554.9,228.9,555.9,229.2z"/>
				<path id="XMLID_31_" class="st4" d="M550.8,207.1c-0.6-0.1-1.4,0-2.1,0.1c0.3-0.6,0.5-1.2,0.8-1.8
					C550,205.9,550.4,206.5,550.8,207.1z"/>
			</g>
			<g id="XMLID_371_">
				<path id="XMLID_83_" class="st5" d="M554.1,218.1c-0.7-0.1-1.5,0-2.3,0.1c-0.6,0.1-1.3,1.1-0.9,1.7c1.9,3,3.6,6.1,5.1,9.4
					c0.4,0.8,0.7,1.6,1.1,2.5c0.4-0.5,0.9-1.1,1.4-1.6c-0.8-0.3-1.6-0.5-2.4-0.8c-0.9-0.3-1.9-0.6-2.8-1c-0.1,0-0.2-0.1-0.4-0.1
					c-0.8-0.3-1.7,0.9-1.3,1.6c1,2,2,4.1,3,6.1c0.5,1,1,2,1.5,3.1c0.3,0.5,1.3,1.8,0.5,1.8c-1.3,0-1.7-1.8-3.2-0.4
					c-0.3,0.2-0.6,0.7-0.5,1.1c1.5,6.3,6,11.2,7.6,17.5c0.5,2,0.8,4,1,6c0.4,4.3,0.4,8.6,0.5,12.9c0,0.9,1.2,0.3,1.2-0.3
					c0-1.8,0-3.5,0-5.3c0-4.4-0.1-8.9-1-13.2c-0.2-1-0.5-1.9-0.8-2.9c-1.7-4.8-4.8-9.1-6.3-13.9"/>
				<path id="XMLID_82_" class="st5" d="M554.1,218.1c0.2,0.7,0.4,1.3,0.6,2c0.5-0.5,1-1,1.4-1.5
					C555.4,218.4,554.7,218.2,554.1,218.1z"/>
				<path id="XMLID_81_" class="st5" d="M553.5,220.1c0.5,0.1,1,0.2,1.5,0.5c0.7,0.3,1.6-0.8,1.4-1.5c-1.1-4.4-3-8.4-5.7-12.1
					c-0.4-0.6-0.8-1.1-1.3-1.7c-0.2,0.6-0.5,1.2-0.8,1.8c0.7-0.2,1.5-0.2,2.1-0.1c4.6,0.5,7.4,6.4,8.4,10.4c1,3.8,1.2,7.8,1.3,11.7
					c0.1,3,0.2,5.9,0.2,8.9c0.1,6,0.2,12,0.3,18c0,2.9,0,5.9,0.1,8.8c0,1.1,0,2.3,0,3.4c0.2,24.7,0.4,49.4,0.6,74.1
					c0,8.1,0.3,16.2,0.4,24.3c0,1.2,1.7,0.5,1.7-0.4c-0.3-19.7-0.1-39.4-0.3-59.1c-0.1-11.7-0.2-23.4-0.3-35.1
					c-0.1-12-0.3-24-0.5-35.9c-0.1-3.6-0.2-7.2-0.4-10.9c-0.4-6.9-2.8-21.9-12.8-20.2c-0.2,0-0.4,0-0.6,0.1
					c-0.7,0.2-1.3,1.2-0.8,1.8c2.8,3.3,4.7,7,6,11"/>
				<path id="XMLID_80_" class="st5" d="M553.5,220.1c-0.3-0.6-0.7-1.1-1-1.7c-0.3,0.6-0.6,1.1-0.9,1.7
					C552.3,220,552.9,220,553.5,220.1z"/>
				<path id="XMLID_79_" class="st5" d="M554.8,242.2c0.7,0.4,1.6,0.9,2,0.9c0.8-0.1,1.6-0.7,1.8-1.6c0.4-1.3-0.6-2.8-1.2-3.9
					c-1.1-2.2-2.1-4.5-3.2-6.7c-0.4-0.8-0.8-1.7-1.2-2.5c-0.4,0.5-0.9,1.1-1.3,1.6c0.8,0.3,1.7,0.6,2.5,0.9c0.9,0.3,1.8,0.6,2.7,0.9
					c0.1,0,0.2,0.1,0.4,0.1c0.9,0.3,1.7-0.9,1.4-1.7c-1.4-3.5-3.1-6.9-5.1-10.2"/>
				<path id="XMLID_78_" class="st5" d="M554.8,242.2c-0.2-0.5-0.3-1.1-0.5-1.7c-0.2,0.4-0.3,0.7-0.5,1.1
					C553.8,241.7,554.3,241.9,554.8,242.2z"/>
				<path id="XMLID_77_" class="st5" d="M553.7,640.4c1.3-2.7,2.6-5.4,3.9-8c0.5-1,1.8-3,0.6-4.1c-0.8-0.7-1.8-0.2-2.6,0.2
					c-1,0.5-1.2,1.3-1-0.1c0.3-1.9,1.7-3.9,2.6-5.5c1.5-2.8,2.9-5.5,3.8-8.5c0.5-1.3,0.8-2.7,1.1-4.2c0.7-3.9,0.8-7.9,0.8-11.9
					c0-1.7,0-3.3,0-5c0-0.9-1.2-0.3-1.2,0.3c-0.2,4.3-0.1,8.8-0.5,13.1c-0.2,2-0.5,3.9-1,5.8c-1.6,6.3-6.1,11.2-7.6,17.5
					c-0.1,0.3-0.1,0.6,0.1,0.8c1.3,1.2,1.9-0.6,3.1-0.6c0.5-0.5,0.7-0.3,0.3,0.7c0.1,0.6,0,1.1-0.3,1.6c-0.3,1.1-1,2.1-1.5,3.1
					c-1,2-2,4.1-3,6.1c-0.3,0.5-0.1,1.5,0.7,1.2c1.4-0.5,2.8-0.9,4.2-1.4"/>
				<path id="XMLID_76_" class="st5" d="M553.7,640.4c-0.5,0.2-1,0.3-1.5,0.5c0.2,0.4,0.5,0.8,0.7,1.2
					C553.2,641.5,553.5,640.9,553.7,640.4z"/>
				<path id="XMLID_75_" class="st5" d="M553.1,650.9c2.2-3.5,4-7.1,5.5-11c0.2-0.5-0.2-1.2-0.8-1c-1.4,0.5-2.8,0.9-4.1,1.4"/>
				<path id="XMLID_74_" class="st5" d="M553.1,650.9c-0.4,0-0.8,0-1.2-0.1c0.1,0.4,0.3,0.8,0.5,1.3
					C552.7,651.7,552.9,651.3,553.1,650.9z"/>
				<path id="XMLID_73_" class="st5" d="M550.4,663.9c2.9-3.8,4.9-8,6-12.6c0.2-0.8-0.3-1.2-1.1-0.9c-0.7,0.3-1.5,0.5-2.3,0.5"/>
				<path id="XMLID_72_" class="st5" d="M550.4,663.9c-0.4,0-0.7,0-1.1-0.1c0,0.5,0,1,0.1,1.5C549.8,664.8,550.1,664.3,550.4,663.9z
					"/>
				<path id="XMLID_71_" class="st5" d="M554.3,652.6c-1.2,4.3-3.2,8.1-6.1,11.5c-0.3,0.3-0.6,1.3,0.1,1.5c8,1.8,12.2-7.9,13.3-14.2
					c0.8-4.7,0.9-9.6,1-14.3c0.2-9.8,0.3-19.6,0.4-29.3c0-3.2,0.1-6.5,0.1-9.7c0.3-23.3,0.5-46.5,0.6-69.8c0.1-9-0.1-18,0-26.9
					c0-1.2-1.6-0.4-1.7,0.4c-0.2,18.6-0.5,37.2-0.6,55.8c-0.1,16.3-0.2,32.6-0.4,48.9c0,2.6,0,5.1-0.1,7.7c0,4.9-0.1,9.8-0.2,14.8
					c-0.1,3.9-0.1,7.7-0.3,11.6c-0.1,2.5-0.2,5-0.4,7.5c-0.5,5.2-2.7,16.3-9.7,15.7"/>
				<path id="XMLID_70_" class="st5" d="M554.3,652.6c0.5-0.1,0.9-0.3,1.4-0.5c-0.4-0.3-0.7-0.6-1.1-0.9
					C554.6,651.8,554.4,652.2,554.3,652.6z"/>
				<path id="XMLID_69_" class="st5" d="M556.3,641.4c-1.5,3.5-3.3,6.9-5.4,10.1c-0.3,0.5-0.1,1.2,0.5,1.3c1.1,0.2,2,0.1,3-0.1"/>
				<path id="XMLID_68_" class="st5" d="M556.3,641.4c0.5-0.1,0.9-0.3,1.4-0.5l-0.8-0.9C556.7,640.4,556.5,640.9,556.3,641.4z"/>
				<path id="XMLID_65_" class="st6" d="M563.9,489c0-0.3-0.3-0.6-0.6-0.8c-0.7-0.2-1.5,0.4-1.4,1.2c0.1,0.7,1.2,1.1,1.7,0.5
					C563.9,489.8,564,489.4,563.9,489z"/>
				<path id="XMLID_64_" class="st6" d="M564.7,472.8c-0.1-0.3-0.3-0.7-0.6-0.9c-0.6-0.4-1.6-0.4-2.2,0c-0.6,0.4-1.3,1.1-1.3,1.9
					c0.1,1.3,2.2,1.7,3.3,1C564.6,474.5,564.9,473.6,564.7,472.8z"/>
				<path id="XMLID_63_" class="st6" d="M565.1,456.8c-0.3-0.8-0.9-1.4-1.8-1.6c-1.7-0.3-3.4,1.6-2.8,3.3c0.6,1.7,3.2,2,4.2,0.7
					C565.4,458.5,565.4,457.6,565.1,456.8z"/>
				<path id="XMLID_62_" class="st6" d="M565,440.4c-0.6-1.1-2.3-1.6-3.5-1c-1,0.5-1.6,1.5-1.7,2.6c0.1,0.4,0.2,0.6,0.2,0.6
					c0.3,1,1.4,1.8,2.5,1.8c1.1,0,2.1-0.8,2.6-1.8c0.2-0.4,0.3-0.9,0.2-1.4C565.2,440.9,565.1,440.7,565,440.4z"/>
				<path id="XMLID_61_" class="st6" d="M564.2,378.6c0-0.3,0-0.7-0.3-0.9c-0.5-0.5-1.6-0.2-1.7,0.5c-0.2,0.7,0.7,1.4,1.4,1.2
					C563.9,379.2,564.1,378.9,564.2,378.6z"/>
				<path id="XMLID_60_" class="st6" d="M564.9,394.8c0.2-0.7-0.1-1.6-0.8-2c-1.1-0.7-3.2-0.3-3.3,1c-0.1,0.8,0.6,1.5,1.3,1.9
					c0.6,0.4,1.6,0.5,2.2,0.1C564.7,395.5,564.9,395.2,564.9,394.8z"/>
				<path id="XMLID_59_" class="st6" d="M565.3,410.9c0.3-0.8,0.2-1.7-0.3-2.4c-1.1-1.3-3.6-1-4.2,0.7c-0.6,1.6,1,3.6,2.7,3.3
					C564.4,412.3,565.1,411.6,565.3,410.9z"/>
				<path id="XMLID_58_" class="st6" d="M565.2,427.2c0.1-0.2,0.2-0.5,0.2-0.7c0.1-0.5,0-1-0.2-1.4c-0.4-1-1.5-1.8-2.6-1.8
					c-1.1,0-2.2,0.7-2.5,1.8c0,0,0,0.2-0.1,0.6c0.1,1.1,0.7,2.1,1.7,2.6C562.9,428.9,564.6,428.3,565.2,427.2z"/>
			</g>
		</g>
	</g>
	<g id="droite_1_">
		<g id="XMLID_327_">
			<g id="XMLID_631_">
				<path id="XMLID_22_" class="st4" d="M45.4,228.4c-0.4,0.8-0.8,1.7-1.2,2.5c-0.9,0.3-1.8,0.6-2.7,0.9l0-0.1
					c0.3-0.8,0.7-1.7,1.1-2.5c0.9-0.3,1.9-0.6,2.8-0.9L45.4,228.4z"/>
				<path id="XMLID_21_" class="st4" d="M33.2,425c0.4-1,1.5-1.8,2.6-1.8c1.1,0,2.2,0.7,2.5,1.8c0,0,0.1,0.2,0.2,0.6
					c-0.1,1.1-0.7,2.1-1.7,2.6c-1.2,0.6-2.8,0-3.5-1.1c-0.1-0.2-0.2-0.5-0.2-0.7C32.9,425.9,33,425.5,33.2,425z"/>
				<path id="XMLID_20_" class="st4" d="M43.8,220.3l-0.1-0.2c0.2-0.7,0.3-1.4,0.6-2c0.7-0.1,1.5,0,2.3,0.1c0.6,0.1,1.3,1.1,0.9,1.7
					c-1.9,3-3.6,6.1-5,9.4c-0.8,0.3-1.6,0.5-2.5,0.8c0.4,0.5,0.9,1.1,1.4,1.7l0,0.1c-0.1,0-0.2,0.1-0.4,0.1
					c-0.9,0.3-1.7-0.9-1.4-1.7c1.4-3.5,3.1-6.9,5.1-10.2c0.6-0.1,1.2-0.1,1.9,0c-0.3-0.5-0.6-1.1-0.9-1.7c-0.3,0.5-0.7,1.1-1,1.6
					C44.5,220.1,44.2,220.2,43.8,220.3z"/>
				<path id="XMLID_19_" class="st4" d="M37.3,614.3c0-2.6-0.1-5.2-0.1-7.8c0.2,2,0.5,3.9,1,5.8c1.6,6.3,6.1,11.3,7.6,17.6
					c0.1,0.3,0.1,0.6-0.1,0.8c-1.3,1.2-1.9-0.6-3.1-0.6c-0.5-0.5-0.6-0.3-0.3,0.7c-0.1,0.6,0,1.1,0.3,1.6c0.3,1,1,2.1,1.5,3.1
					c1,2,2,4.1,3,6.1c0.2,0.5,0.1,1.5-0.7,1.2c-1.4-0.5-2.8-0.9-4.2-1.4c-0.2-0.5-0.4-0.9-0.6-1.4l-0.8,0.9c0.5,0.2,0.9,0.3,1.4,0.5
					c1.5,3.5,3.3,6.9,5.4,10.1c0.3,0.5,0.1,1.2-0.5,1.3c-1.1,0.2-2,0.1-3-0.1c-0.1-0.4-0.2-0.9-0.4-1.4c-0.3,0.3-0.7,0.6-1,0.9
					c0.5,0.2,0.9,0.4,1.4,0.5c1.2,4.3,3.3,8.1,6.1,11.5c0.3,0.3,0.6,1.3-0.1,1.5c-8,1.9-12.2-7.9-13.3-14.1c-0.8-4.7-0.9-9.6-1-14.3
					c-0.2-9.8-0.3-19.5-0.5-29.3c0-3.2-0.1-6.5-0.1-9.7h0.2c0,4,0.1,8,0.8,11.9C36.5,611.5,36.9,612.9,37.3,614.3
					c0,4.9,0.1,9.8,0.2,14.7c0,3.9,0.1,7.7,0.2,11.6c0.1,2.5,0.2,5,0.4,7.5c0.5,5.2,2.7,16.3,9.8,15.7c0.3,0.4,0.7,0.9,1,1.3
					c0-0.5,0-1,0.1-1.5c-0.4,0.1-0.8,0.1-1.1,0.2c-2.9-3.8-4.9-8-6-12.6c-0.2-0.8,0.3-1.2,1-0.9c0.8,0.4,1.5,0.5,2.3,0.5
					c0.2,0.4,0.4,0.7,0.7,1.1c0.1-0.4,0.3-0.8,0.4-1.3c-0.4,0.1-0.8,0.1-1.1,0.1c-2.2-3.5-4-7.1-5.6-11c-0.2-0.5,0.2-1.2,0.8-1
					c1.4,0.5,2.8,0.9,4.1,1.4c0.3,0.6,0.5,1.1,0.8,1.7c0.2-0.4,0.4-0.8,0.7-1.2c-0.5-0.2-1-0.3-1.5-0.5c-1.3-2.7-2.6-5.4-3.9-8.1
					c-0.5-1-1.7-3-0.6-4.1c0.8-0.7,1.8-0.2,2.6,0.2c1,0.5,1.2,1.3,1-0.1c-0.3-1.9-1.7-3.9-2.6-5.5C39.6,619.9,38.3,617.2,37.3,614.3
					z"/>
				<path id="XMLID_18_" class="st4" d="M36.7,593.4c0-0.6-1.2-1.2-1.2-0.3c0,1.7,0,3.3,0,5h-0.2c-0.2-23.3-0.4-46.5-0.6-69.8
					c-0.1-9,0.1-18,0-26.9c0-1.2,1.6-0.5,1.6,0.4c0.3,18.6,0.5,37.2,0.6,55.8c0.1,16.3,0.2,32.6,0.4,48.9
					C36.8,602.2,36.9,597.8,36.7,593.4z"/>
				<path id="XMLID_17_" class="st4" d="M36.2,378.1c0.1,0.7-0.7,1.4-1.4,1.2c-0.3-0.1-0.5-0.4-0.6-0.8c-0.1-0.3,0-0.7,0.2-0.9
					C35,377.1,36,377.4,36.2,378.1z"/>
				<path id="XMLID_16_" class="st4" d="M33.5,394.8c-0.2-0.7,0.1-1.6,0.7-2c1.1-0.7,3.2-0.3,3.3,1c0.1,0.8-0.6,1.5-1.3,1.9
					c-0.6,0.4-1.6,0.5-2.2,0.1C33.7,395.5,33.5,395.1,33.5,394.8z"/>
				<path id="XMLID_15_" class="st4" d="M33.3,456.7c0.3-0.8,0.9-1.4,1.8-1.6c1.7-0.3,3.4,1.7,2.7,3.3c-0.6,1.7-3.2,2-4.2,0.7
					C33,458.4,33,457.5,33.3,456.7z"/>
				<path id="XMLID_14_" class="st4" d="M33.4,442.5c-0.2-0.4-0.3-0.9-0.2-1.4c0-0.3,0.1-0.5,0.2-0.7c0.6-1.1,2.3-1.6,3.5-1
					c1,0.5,1.6,1.5,1.7,2.6c-0.1,0.3-0.2,0.6-0.2,0.6c-0.3,1.1-1.4,1.8-2.5,1.8C34.8,444.3,33.8,443.5,33.4,442.5z"/>
				<path id="XMLID_13_" class="st4" d="M37.6,238c-0.1,6-0.2,12.1-0.3,18.1c-0.3,0.9-0.6,1.9-0.8,2.8c-0.7,3.2-0.9,6.4-1,9.7h-0.2
					c0.1-10.8,0.2-21.6,0.5-32.4c0.1-3.6,0.1-7.2,0.4-10.9c0.4-7,2.8-21.9,12.8-20.2l0,0.2c-0.5,0.6-0.9,1.1-1.3,1.7
					c-4.6,0.5-7.4,6.4-8.4,10.4c-1,3.8-1.2,7.8-1.3,11.7C37.7,232.1,37.6,235.1,37.6,238z"/>
				<path id="XMLID_12_" class="st4" d="M49.1,663.7c0,0.5,0,1-0.1,1.5c-0.4-0.4-0.7-0.9-1-1.3C48.3,663.8,48.7,663.7,49.1,663.7z"
					/>
				<path id="XMLID_11_" class="st4" d="M42.6,238.9c-0.3,0.6-1.3,1.8-0.5,1.8c1.4,0,1.7-1.8,3.2-0.4c0.3,0.3,0.6,0.7,0.5,1.1
					c-1.5,6.3-6,11.2-7.6,17.5c-0.5,2-0.8,4.1-1,6.2c0-3,0.1-6,0.1-9c1.7-4.8,4.8-9.1,6.3-13.9c0.5-0.3,0.9-0.5,0.9-0.5
					c-0.1-0.4-0.3-0.7-0.5-1.1c-0.1,0.5-0.3,1.1-0.4,1.6c-0.7,0.4-1.7,1-2,0.9c-0.9-0.1-1.6-0.8-1.8-1.6c-0.4-1.4,0.6-2.8,1.2-4
					c1.1-2.2,2.2-4.4,3.2-6.6c0.8-0.3,1.7-0.6,2.6-0.9c-0.4-0.5-0.9-1.1-1.3-1.6l0-0.1c0.1,0,0.2-0.1,0.3-0.1
					c0.8-0.3,1.7,0.9,1.4,1.6c-1,2-2,4.1-3,6.1C43.6,236.9,43.1,237.9,42.6,238.9z"/>
				<path id="XMLID_10_" class="st4" d="M46.4,650.7c-0.1,0.4-0.3,0.8-0.4,1.3c-0.2-0.4-0.5-0.7-0.7-1.1
					C45.6,650.9,46,650.8,46.4,650.7z"/>
				<path id="XMLID_9_" class="st4" d="M41.5,639.9c0.2,0.5,0.4,0.9,0.6,1.4c-0.5-0.1-0.9-0.3-1.4-0.5L41.5,639.9z"/>
				<path id="XMLID_8_" class="st4" d="M46.1,640.8c-0.2,0.4-0.4,0.8-0.7,1.2c-0.3-0.6-0.5-1.1-0.8-1.7
					C45.1,640.5,45.6,640.7,46.1,640.8z"/>
				<path id="XMLID_7_" class="st4" d="M37.2,606.5c0,2.6,0,5.2,0.1,7.8c-0.4-1.4-0.8-2.8-1.1-4.2c-0.7-3.9-0.8-7.9-0.8-11.9
					c0-1.7,0-3.3,0-5c0-0.9,1.2-0.3,1.2,0.3C36.9,597.8,36.8,602.2,37.2,606.5z"/>
				<path id="XMLID_6_" class="st4" d="M43.7,220.1l0.1,0.2c-0.2,0.1-0.3,0.1-0.5,0.2c-0.7,0.3-1.6-0.8-1.5-1.5
					c1.1-4.4,3-8.4,5.7-12.1c0.7-0.1,1.4,0,2.1,0.1c-0.2-0.6-0.5-1.2-0.8-1.8l0-0.2c0.2,0,0.4,0,0.6,0.1c0.8,0.2,1.3,1.2,0.8,1.8
					c-2.8,3.3-4.7,7-6,11c-0.6,0.1-1.3,0.3-2,0.6C42.8,219.1,43.3,219.6,43.7,220.1z"/>
				<path id="XMLID_5_" class="st4" d="M34.4,489c0.1-0.3,0.3-0.6,0.6-0.8c0.7-0.2,1.6,0.4,1.4,1.2c-0.1,0.7-1.2,1-1.7,0.5
					C34.4,489.7,34.3,489.3,34.4,489z"/>
				<path id="XMLID_4_" class="st4" d="M36.5,471.9c0.6,0.4,1.3,1.1,1.3,1.9c-0.1,1.3-2.2,1.7-3.3,1c-0.6-0.4-0.9-1.3-0.7-2.1
					c0.1-0.3,0.3-0.7,0.6-0.9C34.9,471.4,35.8,471.5,36.5,471.9z"/>
				<path id="XMLID_3_" class="st4" d="M44.1,652.6c-0.5-0.1-0.9-0.3-1.4-0.5c0.3-0.3,0.7-0.6,1-0.9
					C43.8,651.7,43.9,652.1,44.1,652.6z"/>
				<path id="XMLID_2_" class="st4" d="M33.3,408.4c1.1-1.3,3.6-1,4.2,0.7c0.6,1.6-1,3.6-2.8,3.3c-0.8-0.1-1.5-0.8-1.8-1.6
					C32.7,410,32.8,409.1,33.3,408.4z"/>
			</g>
			<g id="XMLID_630_">
				<path id="XMLID_85_" class="st5" d="M44.9,220c-0.4,0-0.7,0.2-1,0.3c-0.2,0.1-0.3,0.1-0.5,0.2c-0.7,0.3-1.6-0.8-1.5-1.5
					c1.1-4.4,3-8.4,5.7-12.1c0.4-0.6,0.9-1.1,1.3-1.7c0.2,0.6,0.5,1.2,0.8,1.8c-0.7-0.2-1.4-0.2-2.1-0.1c-4.6,0.5-7.4,6.4-8.4,10.4
					c-1,3.8-1.2,7.8-1.3,11.7c-0.1,2.9-0.2,5.9-0.2,8.8c-0.1,6-0.2,12.1-0.3,18.1c0,3-0.1,6-0.1,9c0,1.1,0,2.1,0,3.2
					c-0.2,24.7-0.4,49.4-0.5,74.2c0,8.1-0.3,16.2-0.4,24.3c0,1.2-1.6,0.4-1.6-0.4c0.3-19.7,0.1-39.4,0.3-59.1
					c0.1-12.9,0.2-25.8,0.4-38.6c0.1-10.8,0.2-21.6,0.5-32.4c0.1-3.6,0.1-7.2,0.4-10.9c0.4-7,2.8-21.9,12.8-20.2
					c0.2,0,0.4,0,0.6,0.1c0.8,0.2,1.3,1.2,0.8,1.8c-2.8,3.3-4.7,7-6,11c-0.2,0.7-0.4,1.3-0.6,2c-0.5-0.5-1-1-1.4-1.5
					c0.7-0.3,1.4-0.5,2-0.6c0.7-0.1,1.5,0,2.3,0.1c0.6,0.1,1.3,1.1,0.9,1.7c-1.9,3-3.6,6.1-5,9.4c-0.4,0.8-0.7,1.6-1.1,2.5
					c-0.5-0.5-0.9-1.1-1.4-1.7c0.8-0.3,1.6-0.5,2.5-0.8c0.9-0.3,1.9-0.6,2.8-0.9c0.1,0,0.2-0.1,0.3-0.1c0.8-0.3,1.7,0.9,1.4,1.6
					c-1,2-2,4.1-3,6.1c-0.5,1-1,2-1.5,3c-0.3,0.6-1.3,1.8-0.5,1.8c1.4,0,1.7-1.8,3.2-0.4c0.3,0.3,0.6,0.7,0.5,1.1
					c-1.5,6.3-6,11.2-7.6,17.5c-0.5,2-0.8,4.1-1,6.2c-0.4,4.2-0.3,8.5-0.5,12.6c0,0.9-1.2,0.3-1.2-0.3c0-2.9-0.1-5.9,0-8.8
					c0.1-3.3,0.3-6.5,1-9.7c0.2-1,0.5-1.9,0.8-2.8c1.7-4.8,4.8-9.1,6.3-13.9"/>
				<path id="XMLID_45_" class="st5" d="M44.9,220c0.3-0.5,0.6-1.1,1-1.6c0.3,0.5,0.6,1.1,0.9,1.7C46.1,220,45.5,219.9,44.9,220z"/>
				<path id="XMLID_44_" class="st5" d="M43.7,242.1c-0.7,0.4-1.7,1-2,0.9c-0.9-0.1-1.6-0.8-1.8-1.6c-0.4-1.4,0.6-2.8,1.2-4
					c1.1-2.2,2.2-4.4,3.2-6.6c0.4-0.8,0.8-1.7,1.2-2.5c0.4,0.5,0.9,1.1,1.3,1.6c-0.8,0.3-1.7,0.6-2.6,0.9c-0.9,0.3-1.8,0.6-2.7,0.9
					c-0.1,0-0.2,0.1-0.4,0.1c-0.9,0.3-1.7-0.9-1.4-1.7c1.4-3.5,3.1-6.9,5.1-10.2"/>
				<path id="XMLID_43_" class="st5" d="M43.7,242.1c0.2-0.5,0.3-1.1,0.4-1.6c0.1,0.4,0.3,0.7,0.5,1.1
					C44.5,241.6,44.1,241.8,43.7,242.1z"/>
				<path id="XMLID_42_" class="st5" d="M44.6,640.3c-1.3-2.7-2.6-5.4-3.9-8.1c-0.5-1-1.7-3-0.6-4.1c0.8-0.7,1.8-0.2,2.6,0.2
					c1,0.5,1.2,1.3,1-0.1c-0.3-1.9-1.7-3.9-2.6-5.5c-1.5-2.8-2.9-5.5-3.8-8.4c-0.4-1.4-0.8-2.8-1.1-4.2c-0.7-3.9-0.8-7.9-0.8-11.9
					c0-1.7,0-3.3,0-5c0-0.9,1.2-0.3,1.2,0.3c0.2,4.3,0.1,8.8,0.5,13.1c0.2,2,0.5,3.9,1,5.8c1.6,6.3,6.1,11.3,7.6,17.6
					c0.1,0.3,0.1,0.6-0.1,0.8c-1.3,1.2-1.9-0.6-3.1-0.6c-0.5-0.5-0.6-0.3-0.3,0.7c-0.1,0.6,0,1.1,0.3,1.6c0.3,1,1,2.1,1.5,3.1
					c1,2,2,4.1,3,6.1c0.2,0.5,0.1,1.5-0.7,1.2c-1.4-0.5-2.8-0.9-4.2-1.4"/>
				<path id="XMLID_41_" class="st5" d="M44.6,640.3c0.5,0.1,1,0.3,1.5,0.5c-0.2,0.4-0.4,0.8-0.7,1.2
					C45.2,641.5,44.9,640.9,44.6,640.3z"/>
				<path id="XMLID_40_" class="st5" d="M45.3,650.9c-2.2-3.5-4-7.1-5.6-11c-0.2-0.5,0.2-1.2,0.8-1c1.4,0.5,2.8,0.9,4.1,1.4"/>
				<path id="XMLID_39_" class="st5" d="M45.3,650.9c0.4,0,0.8,0,1.1-0.1c-0.1,0.4-0.3,0.8-0.4,1.3
					C45.7,651.6,45.5,651.2,45.3,650.9z"/>
				<path id="XMLID_38_" class="st5" d="M47.9,663.8c-2.9-3.8-4.9-8-6-12.6c-0.2-0.8,0.3-1.2,1-0.9c0.8,0.4,1.5,0.5,2.3,0.5"/>
				<path id="XMLID_37_" class="st5" d="M47.9,663.8c0.3,0,0.7-0.1,1.1-0.2c0,0.5,0,1-0.1,1.5C48.6,664.7,48.3,664.3,47.9,663.8z"/>
				<path id="XMLID_36_" class="st5" d="M44.1,652.6c1.2,4.3,3.3,8.1,6.1,11.5c0.3,0.3,0.6,1.3-0.1,1.5c-8,1.9-12.2-7.9-13.3-14.1
					c-0.8-4.7-0.9-9.6-1-14.3c-0.2-9.8-0.3-19.5-0.5-29.3c0-3.2-0.1-6.5-0.1-9.7c-0.2-23.3-0.4-46.5-0.6-69.8c-0.1-9,0.1-18,0-26.9
					c0-1.2,1.6-0.5,1.6,0.4c0.3,18.6,0.5,37.2,0.6,55.8c0.1,16.3,0.2,32.6,0.4,48.9c0,2.6,0,5.2,0.1,7.8c0,4.9,0.1,9.8,0.2,14.7
					c0,3.9,0.1,7.7,0.2,11.6c0.1,2.5,0.2,5,0.4,7.5c0.5,5.2,2.7,16.3,9.8,15.7"/>
				<path id="XMLID_35_" class="st5" d="M44.1,652.6c-0.5-0.1-0.9-0.3-1.4-0.5c0.3-0.3,0.7-0.6,1-0.9
					C43.8,651.7,43.9,652.1,44.1,652.6z"/>
				<path id="XMLID_34_" class="st5" d="M42.1,641.3c1.5,3.5,3.3,6.9,5.4,10.1c0.3,0.5,0.1,1.2-0.5,1.3c-1.1,0.2-2,0.1-3-0.1"/>
				<path id="XMLID_33_" class="st5" d="M42.1,641.3c-0.5-0.1-0.9-0.3-1.4-0.5l0.8-0.9C41.7,640.4,41.9,640.8,42.1,641.3z"/>
				<path id="XMLID_30_" class="st6" d="M34.4,489c0.1-0.3,0.3-0.6,0.6-0.8c0.7-0.2,1.6,0.4,1.4,1.2c-0.1,0.7-1.2,1-1.7,0.5
					C34.4,489.7,34.3,489.3,34.4,489z"/>
				<path id="XMLID_29_" class="st6" d="M33.7,472.8c0.1-0.3,0.3-0.7,0.6-0.9c0.6-0.5,1.5-0.4,2.2,0c0.6,0.4,1.3,1.1,1.3,1.9
					c-0.1,1.3-2.2,1.7-3.3,1C33.8,474.4,33.5,473.5,33.7,472.8z"/>
				<path id="XMLID_28_" class="st6" d="M33.3,456.7c0.3-0.8,0.9-1.4,1.8-1.6c1.7-0.3,3.4,1.7,2.7,3.3c-0.6,1.7-3.2,2-4.2,0.7
					C33,458.4,33,457.5,33.3,456.7z"/>
				<path id="XMLID_27_" class="st6" d="M33.4,440.4c0.6-1.1,2.3-1.6,3.5-1c1,0.5,1.6,1.5,1.7,2.6c-0.1,0.3-0.2,0.6-0.2,0.6
					c-0.3,1.1-1.4,1.8-2.5,1.8c-1.1,0-2.1-0.8-2.6-1.8c-0.2-0.4-0.3-0.9-0.2-1.4C33.2,440.8,33.3,440.6,33.4,440.4z"/>
				<path id="XMLID_26_" class="st6" d="M34.2,378.5c-0.1-0.3,0-0.7,0.2-0.9c0.5-0.5,1.6-0.2,1.7,0.5c0.1,0.7-0.7,1.4-1.4,1.2
					C34.5,379.2,34.3,378.9,34.2,378.5z"/>
				<path id="XMLID_25_" class="st6" d="M33.5,394.8c-0.2-0.7,0.1-1.6,0.7-2c1.1-0.7,3.2-0.3,3.3,1c0.1,0.8-0.6,1.5-1.3,1.9
					c-0.6,0.4-1.6,0.5-2.2,0.1C33.7,395.5,33.5,395.1,33.5,394.8z"/>
				<path id="XMLID_24_" class="st6" d="M33,410.8c-0.3-0.8-0.2-1.7,0.3-2.4c1.1-1.3,3.6-1,4.2,0.7c0.6,1.6-1,3.6-2.8,3.3
					C34,412.3,33.3,411.6,33,410.8z"/>
				<path id="XMLID_23_" class="st6" d="M33.2,427.2c-0.1-0.2-0.2-0.5-0.2-0.7c0-0.5,0-1,0.2-1.4c0.4-1,1.5-1.8,2.6-1.8
					c1.1,0,2.2,0.7,2.5,1.8c0,0,0.1,0.2,0.2,0.6c-0.1,1.1-0.7,2.1-1.7,2.6C35.4,428.8,33.8,428.3,33.2,427.2z"/>
			</g>
		</g>
	</g>
</g>
</svg>
