<?xml version="1.0" encoding="utf-8"?>
<!-- Generator: Adobe Illustrator 21.0.0, SVG Export Plug-In . SVG Version: 6.00 Build 0)  -->
<svg version="1.1" id="Calque_1" xmlns="http://www.w3.org/2000/svg" xmlns:xlink="http://www.w3.org/1999/xlink" x="0px" y="0px"
	 viewBox="0 0 481.3 12.6" style="enable-background:new 0 0 481.3 12.6;" xml:space="preserve">
<style type="text/css">
	.st0{fill:#CCAA5B;}
</style>
<g>
	<g>
		<path class="st0" d="M422.5,11.5c3.9,0,7.8,0.1,11.7-0.4c3.8-0.5,7.1-2,10.4-3.9c1.1-0.6,2.3-1,3.4-1.6c1.3-0.6,0.3-0.2,0,0.5
			c-0.3,0.7-0.4,1.3,0.2,1.9c0.7,0.6,1.4,0.4,2.2,0.2c2.7-0.9,5.5-2.6,8.1-3.9c-0.4-0.3-0.8-0.7-1.2-1c-0.5,1.4-0.9,2.7-1.4,4.1
			c-0.2,0.6,0.7,1.2,1.2,1c3-1.2,5.9-2.7,8.7-4.5c-0.4-0.2-0.8-0.4-1.2-0.7c0.2,0.9,0.1,1.8-0.4,2.5c-0.2,0.5,0.6,1.2,1.1,1
			c3.8-0.9,7.1-2.6,10.1-5.1c-0.4-0.2-0.9-0.4-1.3-0.6c1,4.3-4.2,6.9-7.6,7.7c-2.8,0.7-5.7,0.9-8.6,1c-2.2,0.1-4.3,0.1-6.5,0.2
			c-7.4,0.1-14.8,0.2-22.2,0.3c-18.2,0.2-36.3,0.3-54.5,0.4c-5.9,0-366.4,0.2-372.3,0.3c-0.9,0-0.6,1.2,0,1.2
			c14.4-0.2,383.7-0.1,398.2-0.2c17.4-0.2,34.8-0.3,52.2-0.6c2.7-0.1,5.3-0.1,8-0.3c5.2-0.3,16.5-2.1,14.7-9.8
			c-0.1-0.5-0.9-1-1.3-0.6c-2.8,2.4-6,3.9-9.6,4.8c0.4,0.3,0.7,0.7,1.1,1c0.5-1.1,0.5-2,0.4-3.2c-0.1-0.4-0.8-0.9-1.2-0.7
			c-2.8,1.8-5.6,3.3-8.7,4.5c0.4,0.3,0.8,0.7,1.2,1c0.5-1.4,0.9-2.8,1.4-4.1c0.2-0.6-0.7-1.2-1.2-1c-1.5,0.7-3,1.4-4.5,2.2
			c-0.7,0.4-1.5,0.7-2.2,1.1c-0.4,0.2-1.3,1-1.3,0.3c0-1,1.3-1.2,0.3-2.3c-0.2-0.2-0.5-0.4-0.8-0.4c-4.6,1.1-8.2,4.4-12.9,5.6
			c-4.5,1.1-9.2,0.9-13.8,1.1C421.6,10.6,422,11.5,422.5,11.5L422.5,11.5z"/>
	</g>
</g>
</svg>
