<svg id="Capa_1" data-name="Capa 1" xmlns="http://www.w3.org/2000/svg" viewBox="0 0 512 512"><defs><style>.cls-1{fill:#faf7ff;}</style></defs><title>blanctwitter</title><path class="cls-1" d="M256,0C114.84,0,0,114.84,0,256S114.84,512,256,512,512,397.15,512,256,397.17,0,256,0ZM370.2,197.41c.11,2.54.18,5.09.18,7.65,0,77.86-59.25,167.62-167.66,167.62a166.67,166.67,0,0,1-90.32-26.45,119,119,0,0,0,87.24-24.4,59,59,0,0,1-55-40.93,59.15,59.15,0,0,0,26.6-1,58.93,58.93,0,0,1-47.26-57.78c0-.25,0-.51,0-.74a58.68,58.68,0,0,0,26.68,7.36,59,59,0,0,1-18.23-78.67,167.31,167.31,0,0,0,121.44,61.58,59,59,0,0,1,100.41-53.76,117.61,117.61,0,0,0,37.43-14.3,59.19,59.19,0,0,1-25.94,32.61,117.14,117.14,0,0,0,33.84-9.27A118.52,118.52,0,0,1,370.2,197.41Z" transform="translate(0 0)"/></svg>