<svg id="Capa_1" data-name="Capa 1" xmlns="http://www.w3.org/2000/svg" viewBox="0 0 512 512"><defs><style>.cls-1{fill:#faf7ff;}</style></defs><title>blancyoutube</title><polygon class="cls-1" points="134.49 274.89 154.78 274.89 154.78 384.75 173.99 384.75 173.99 274.89 194.66 274.89 194.66 256.9 134.49 256.9 134.49 274.89"/><path class="cls-1" d="M296.85,288.32c-6.35,0-12.27,3.47-17.84,10.33V256.9H261.75V384.75H279v-9.23c5.78,7.13,11.7,10.54,17.84,10.54,6.87,0,11.49-3.61,13.79-10.71,1.16-4,1.75-10.38,1.75-19.2V318.23c0-9-.59-15.32-1.75-19.14C308.34,291.94,303.71,288.32,296.85,288.32Zm-1.73,69.19c0,8.61-2.52,12.85-7.51,12.85-2.83,0-5.72-1.36-8.61-4.25V308.06c2.89-2.85,5.77-4.21,8.61-4.21,5,0,7.51,4.41,7.51,13Z" transform="translate(0 0)"/><path class="cls-1" d="M229.54,362.29c-3.83,5.41-7.45,8.08-10.92,8.08-2.3,0-3.62-1.36-4-4a53.31,53.31,0,0,1-.16-6.7V289.49H197.17V364.8c0,6.73.58,11.28,1.52,14.17,1.73,4.83,5.57,7.09,11.12,7.09,6.35,0,12.87-3.83,19.73-11.7v10.39h17.27V289.49H229.54Z" transform="translate(0 0)"/><path class="cls-1" d="M244.36,201.48c5.62,0,8.32-4.46,8.32-13.36V147.62c0-8.91-2.7-13.35-8.32-13.35S236,138.72,236,147.62v40.49C236,197,238.74,201.48,244.36,201.48Z" transform="translate(0 0)"/><path class="cls-1" d="M256,0C114.61,0,0,114.61,0,256S114.61,512,256,512,512,397.39,512,256,397.39,0,256,0Zm28.47,119.74h17.39v70.88c0,4.09,0,6.21.21,6.78.38,2.7,1.75,4.09,4.09,4.09,3.49,0,7.15-2.7,11-8.17V119.74h17.44V216H317.19v-10.5c-6.95,8-13.57,11.82-19.93,11.82-5.61,0-9.49-2.28-11.24-7.15-1-2.92-1.55-7.52-1.55-14.32V119.74Zm-65.88,31.39c0-10.29,1.75-17.81,5.46-22.68,4.82-6.58,11.62-9.87,20.31-9.87s15.52,3.29,20.35,9.87c3.66,4.86,5.41,12.39,5.41,22.68v33.71c0,10.23-1.75,17.82-5.41,22.64q-7.24,9.85-20.35,9.85c-8.69,0-15.49-3.28-20.31-9.85-3.71-4.81-5.46-12.41-5.46-22.64ZM171.94,86.82l13.73,50.73,13.19-50.73h19.56l-23.27,76.87V216H175.82V163.69c-1.75-9.27-5.63-22.85-11.83-40.87-4.08-12-8.32-24-12.4-36ZM393.81,393.16a36.09,36.09,0,0,1-30.87,28.06c-35.42,4-71.26,4-107,4s-71.54,0-107-4a36.06,36.06,0,0,1-30.87-28.06c-5-21.63-5-45.24-5-67.52s.06-45.88,5-67.52a36.06,36.06,0,0,1,30.86-28.06c35.42-4,71.27-4,107-4s71.53,0,107,4a36.1,36.1,0,0,1,30.88,28.06c5,21.63,4.93,45.24,4.93,67.52S398.79,371.53,393.81,393.16Z" transform="translate(0 0)"/><path class="cls-1" d="M351.83,288.32c-8.83,0-15.69,3.24-20.67,9.76-3.66,4.82-5.33,12.27-5.33,22.44V353.9c0,10.12,1.87,17.63,5.55,22.4,5,6.51,11.86,9.76,20.89,9.76s16.09-3.41,20.87-10.33a24.59,24.59,0,0,0,4-10.34c.16-1.73.37-5.56.37-11.13v-2.51h-17.6a113.08,113.08,0,0,1-.38,11.69c-1,4.61-3.47,6.92-7.72,6.92-5.93,0-8.83-4.4-8.83-13.21v-16.9h34.53V320.52c0-10.18-1.72-17.63-5.34-22.44C367.36,291.57,360.49,288.32,351.83,288.32Zm8.44,37.57H343v-8.82q0-13.22,8.66-13.22c5.71,0,8.6,4.41,8.6,13.22Z" transform="translate(0 0)"/></svg>