<svg id="Capa_1" data-name="Capa 1" xmlns="http://www.w3.org/2000/svg" viewBox="0 0 512 512"><defs><style>.cls-1{fill:#faf7ff;}</style></defs><title>blancinstagram</title><path class="cls-1" d="M256,307.25A51.17,51.17,0,1,0,204.76,256,51.33,51.33,0,0,0,256,307.25Z" transform="translate(0 0)"/><polygon class="cls-1" points="367.9 193.3 367.9 150.35 367.9 143.95 361.48 143.97 318.54 144.11 318.71 193.47 367.9 193.3"/><path class="cls-1" d="M256,0C114.84,0,0,114.84,0,256S114.84,512,256,512,512,397.15,512,256,397.17,0,256,0ZM401.59,226.13v119.2a56.33,56.33,0,0,1-56.27,56.28H166.68a56.32,56.32,0,0,1-56.27-56.28V166.69a56.32,56.32,0,0,1,56.27-56.27H345.31a56.33,56.33,0,0,1,56.28,56.27Z" transform="translate(0 0)"/><path class="cls-1" d="M335.64,256a79.63,79.63,0,1,1-153.41-29.87H138.77v119.2a27.9,27.9,0,0,0,27.9,27.88H345.3a27.91,27.91,0,0,0,27.9-27.88V226.13H329.72A78.55,78.55,0,0,1,335.64,256Z" transform="translate(0 0)"/></svg>