<?xml version="1.0" encoding="utf-8"?>
<!-- Generator: Adobe Illustrator 19.0.0, SVG Export Plug-In . SVG Version: 6.00 Build 0)  -->
<svg version="1.1" xmlns="http://www.w3.org/2000/svg" xmlns:xlink="http://www.w3.org/1999/xlink" x="0px" y="0px"
	 viewBox="0 0 170.1 243.7" style="enable-background:new 0 0 170.1 243.7;" xml:space="preserve">
<style type="text/css">
	.st0{display:none;}
	.st1{display:inline;fill:#365A81;}
	.st2{display:inline;fill:#CDAA5C;}
	.st3{fill:#F9F6FB;}
	.st4{fill:#CDAA5C;stroke:#856728;stroke-width:1.25;stroke-miterlimit:10;}
</style>
<g id="Calque_1" class="st0">
	<path id="XMLID_1_" class="st1" d="M165.8,6.1v140.5c0,55.3-67,85.3-80.4,90.7l-0.4,0.2l-0.4-0.2C71.3,232,4.3,202,4.3,146.7V6.1
		H165.8z"/>
	<path id="XMLID_9_" class="st2" d="M0.3,0.3v147.7c0,58.2,70.3,89.6,84.4,95.3l0.4,0.2l0.4-0.2c14.1-5.7,84.4-37.3,84.4-95.3V0.3
		H0.3z M77.4,215.1h-8.8L62,204.2l-1.9-7.3h-0.1h-2.1l-0.7-2.6h2.3l-0.3-1.3h-5.4l-0.7-2.6h5.4l-0.3-1.1h-8.2l-0.7-2.6h8.1h6.8h0
		l0.7,2.5l4.5,16.8h3l-5.2-19.3H74l1.1,4.1l0,0l1.2,4.2l0.5,2l2,7.3L77.4,215.1z M124.6,189.3h-8.2c-0.1,0.4-0.2,0.7-0.3,1.1h5.4
		l-0.7,2.6h-5.4c-0.1,0.4-0.2,0.9-0.3,1.3h2.3l-0.7,2.6h-2.1h-0.1c-0.2,0.7-0.4,1.4-0.5,2.1c-0.4,1.6-0.9,3.1-1.3,4.7
		c-0.4,1.5-0.8,3-1.1,4.2c-0.3,1.3-0.6,2.3-0.9,3.2c-0.2,0.9-0.4,1.5-0.5,1.7c-0.2,0.7-0.5,1.2-1,1.5c-0.5,0.3-0.9,0.5-1.4,0.6
		c-0.6,0.1-1.2,0.1-1.8,0.1h-20c-0.1,0-0.3,0-0.6,0c-0.4,0-0.7,0-1.1-0.1c-0.4-0.1-0.7-0.3-0.9-0.6c-0.2-0.3-0.3-0.8-0.1-1.5
		l4.4-16.1h0l0,0l2.7-10.2H97l-6.3,23.4h2.9l6.3-23.4h6.9l-6.3,23.4h2.9l6.3-23.4h0.5h0h6.8h0h8.1L124.6,189.3z M162.1,146.1
		c0,18.8-8.2,34.5-19.3,47.3c-23.8-12.1-51.5-39.8-51.2-103c5.7,2.8,38.4,17.3,53.1,23.8l0.7,0.3v-8.1L92.1,68
		c0.1-5.7,0.5-44.5-6.3-44.8c-0.6,0-1.1,0.2-1.6,0.7c-5.3,5.1-5.7,40.6-5.8,44.1l-46.5,38.6l-0.2,0.2v7.7l47-24.2
		c0.1,4,0.3,22.5-4.7,43.2c-5.2,21.4-17.1,49.5-44.5,62.3c-12.2-13.1-21.4-29.7-21.4-49.8V10.7h154V146.1z"/>
</g>
<g id="Calque_2">
	<path id="XMLID_54_" class="st3" d="M165.6,6.1v140.5c0,55.3-67,85.3-80.4,90.7l-0.4,0.2l-0.4-0.2C71,232,4.1,202,4.1,146.7V6.1
		H165.6z"/>
	<path id="XMLID_49_" class="st4" d="M0,0.3v147.7c0,58.2,70.3,89.6,84.4,95.3l0.4,0.2l0.4-0.2c14.1-5.7,84.4-37.3,84.4-95.3V0.3H0z
		 M77.1,215.1h-8.8l-6.7-10.9l-1.9-7.3h-0.1h-2.1l-0.7-2.6h2.3l-0.3-1.3h-5.4l-0.7-2.6H58l-0.3-1.1h-8.2l-0.7-2.6H57h6.8h0l0.7,2.5
		l4.5,16.8h3l-5.2-19.3h6.9l1.1,4.1l0,0L76,195l0.5,2l2,7.3L77.1,215.1z M124.3,189.3h-8.2c-0.1,0.4-0.2,0.7-0.3,1.1h5.4l-0.7,2.6
		h-5.4c-0.1,0.4-0.2,0.9-0.3,1.3h2.3l-0.7,2.6h-2.1h-0.1c-0.2,0.7-0.4,1.4-0.5,2.1c-0.4,1.6-0.9,3.1-1.3,4.7c-0.4,1.5-0.8,3-1.1,4.2
		c-0.3,1.3-0.6,2.3-0.9,3.2c-0.2,0.9-0.4,1.5-0.5,1.7c-0.2,0.7-0.5,1.2-1,1.5c-0.5,0.3-0.9,0.5-1.4,0.6c-0.6,0.1-1.2,0.1-1.8,0.1
		h-20c-0.1,0-0.3,0-0.6,0c-0.4,0-0.7,0-1.1-0.1c-0.4-0.1-0.7-0.3-0.9-0.6c-0.2-0.3-0.3-0.8-0.1-1.5l4.4-16.1h0l0,0l2.7-10.2h6.9
		l-6.3,23.4h2.9l6.3-23.4h6.9l-6.3,23.4h2.9l6.3-23.4h0.5h0h6.8h0h8.1L124.3,189.3z M161.8,146.1c0,18.8-8.2,34.5-19.3,47.3
		c-23.8-12.1-51.5-39.8-51.2-103c5.7,2.8,38.4,17.3,53.1,23.8l0.7,0.3v-8.1L91.9,68c0.1-5.7,0.5-44.5-6.3-44.8
		c-0.6,0-1.1,0.2-1.6,0.7c-5.3,5.1-5.7,40.6-5.8,44.1l-46.5,38.6l-0.2,0.2v7.7l47-24.2c0.1,4,0.3,22.5-4.7,43.2
		c-5.2,21.4-17.1,49.5-44.5,62.3c-12.2-13.1-21.4-29.7-21.4-49.8V10.7h154V146.1z"/>
</g>
</svg>
