<?xml version="1.0" encoding="utf-8"?>
<!-- Generator: Adobe Illustrator 16.0.0, SVG Export Plug-In . SVG Version: 6.00 Build 0)  -->
<!DOCTYPE svg PUBLIC "-//W3C//DTD SVG 1.1//EN" "http://www.w3.org/Graphics/SVG/1.1/DTD/svg11.dtd">
<svg version="1.1" xmlns="http://www.w3.org/2000/svg" xmlns:xlink="http://www.w3.org/1999/xlink" x="0px" y="0px"
	 width="374.751px" height="483.12px" viewBox="0 0 374.751 483.12" enable-background="new 0 0 374.751 483.12"
	 xml:space="preserve">
<g id="Layer_5">
	<polygon fill="#FAAF75" points="34.321,294.804 187.375,483.12 340.43,294.804 340.43,0 34.321,0 	"/>
</g>
<g id="Layer_2">
	<path fill="#204099" d="M319.443,85.033c-4.934,6.343,0.705,5.639-23.611,11.277s-45.109,34.184-54.272,46.871
		s-24.316,45.813-31.013,66.959c-6.695,21.146-22.907,22.555-22.907,22.555s-10.924-35.242,0.334-37.708
		c11.259-2.468,35.965-40.881,41.604-48.986c5.64-8.105,17.621-21.145,31.718-34.889s26.079-19.031,38.062-20.792
		c11.981-1.762,20.087-6.696,20.087-6.696"/>
	<path fill="#204099" d="M302.175,99.129c-31.365,5.991-51.013,33.479-51.013,33.479c40.173-8.202,59.987-31.066,64.695-37.222
		c0.753-0.986,1.119-1.544,1.119-1.544C309.576,97.015,308.166,96.663,302.175,99.129z"/>
	<path fill="#204099" d="M239.093,152.696c0,0,80.351-1.762,75.77-43.347c-6.343,2.467-54.272,22.555-65.549,27.489
		C244.027,144.238,242.265,145.296,239.093,152.696z"/>
	<path fill="#204099" d="M236.626,155.66l-5.286,12.19c68.017,8.458,81.055-25.727,81.055-25.727
		C308.166,141.067,236.626,155.66,236.626,155.66z"/>
	<path fill="#204099" d="M224.599,183.373c67.723,19.912,77.694-14.817,77.694-14.817l-72.128,0.641L224.599,183.373z"/>
	<path fill="#204099" d="M218.071,199.589c46.519,14.097,65.999-5.308,65.999-5.308l-58.897-12.335L218.071,199.589z"/>
	<path fill="#204099" d="M213.719,211.197c34.36,20.441,47.224,1.586,47.224,1.586l-40.352-19.03
		C220.591,193.752,216.186,203.444,213.719,211.197z"/>
	<path fill="#204099" d="M208.433,222.298c14.978,7.401,25.021,3.7,25.021,3.7l-18.678-17.092L208.433,222.298z"/>
</g>
<g id="Layer_3">
	<path fill="#204099" d="M55.308,83.623c0,0,8.105,4.934,20.087,6.696c11.982,1.762,23.964,7.048,38.061,20.792
		s26.079,26.784,31.717,34.889s30.346,46.519,41.604,48.986c11.258,2.466,0.334,37.708,0.334,37.708s-16.212-1.409-22.907-22.555
		c-6.696-21.146-21.85-54.272-31.013-66.959c-9.163-12.687-29.956-41.232-54.272-46.871c-24.316-5.639-18.678-4.934-23.611-11.277"
		/>
	<path fill="#204099" d="M57.774,93.843c0,0,0.366,0.558,1.12,1.544c4.707,6.156,24.522,29.021,64.694,37.222
		c0,0-19.648-27.489-51.012-33.479C66.584,96.663,65.175,97.015,57.774,93.843z"/>
	<path fill="#204099" d="M125.438,136.838c-11.277-4.934-59.206-25.021-65.55-27.489c-4.581,41.585,75.77,43.347,75.77,43.347
		C132.486,145.296,130.724,144.238,125.438,136.838z"/>
	<path fill="#204099" d="M62.355,142.124c0,0,13.04,34.185,81.056,25.727l-5.286-12.19
		C138.125,155.66,66.584,141.067,62.355,142.124z"/>
	<path fill="#204099" d="M144.586,169.196l-72.127-0.641c0,0,9.292,34.157,77.014,14.246L144.586,169.196z"/>
	<path fill="#204099" d="M148.874,181.242l-58.897,12.335c0,0,18.811,18.516,65.33,4.419L148.874,181.242z"/>
	<path fill="#204099" d="M153.455,193.752l-40.352,19.03c0,0,12.863,18.855,47.224-1.586
		C157.86,203.444,153.455,193.752,153.455,193.752z"/>
	<path fill="#204099" d="M159.27,208.202l-18.678,17.092c0,0,10.044,3.701,25.021-3.7L159.27,208.202z"/>
</g>
<g id="Layer_4" display="none">
</g>
</svg>
