<?xml version="1.0" encoding="utf-8"?>
<!-- Generator: Adobe Illustrator 21.0.0, SVG Export Plug-In . SVG Version: 6.00 Build 0)  -->
<svg version="1.1" id="Calque_1" xmlns="http://www.w3.org/2000/svg" xmlns:xlink="http://www.w3.org/1999/xlink" x="0px" y="0px"
	 viewBox="0 0 176.8 248.4" style="enable-background:new 0 0 176.8 248.4;" xml:space="preserve">
<style type="text/css">
	.st0{fill:#CCAA5B;stroke:#8D7034;stroke-width:0.5;stroke-linecap:round;stroke-linejoin:round;}
	.st1{fill:#FAF7FF;stroke:#8D7034;stroke-width:0.5;stroke-linecap:round;stroke-linejoin:round;}
</style>
<path class="st0" d="M3.5,3.3V151c0,58.2,70.3,89.6,84.4,95.4l0.4,0.2l0.4-0.2c14.1-5.7,84.4-37.3,84.4-95.4V3.3H3.5z"/>
<g>
	<path class="st1" d="M8.8,10.8v138.5c0,9.9,2.6,19.2,6.9,27.7c9.1-18.4,25.1-33.1,44.8-40.5c-15.3-9.3-25.2-25.9-25.2-45.1
		c0-29.2,23.9-53,53-53s53,23.9,53,53c0,19.2-9.9,35.8-25.2,45.1c19.7,6.9,35.8,21.5,44.9,40.3c4.2-8.5,6.8-17.7,6.8-27.5V10.8H8.8z
		"/>
</g>
</svg>
