<?xml version="1.0" encoding="utf-8"?>
<!-- Generator: Adobe Illustrator 19.0.0, SVG Export Plug-In . SVG Version: 6.00 Build 0)  -->
<svg version="1.1" id="Calque_1" xmlns="http://www.w3.org/2000/svg" xmlns:xlink="http://www.w3.org/1999/xlink" x="0px" y="0px"
	 viewBox="0 0 683.6 72" style="enable-background:new 0 0 683.6 72;" xml:space="preserve">
<style type="text/css">
	.st0{fill:#1F3145;}
</style>
<g id="XMLID_3_">
	<path id="XMLID_14_" class="st0" d="M682.6,1.6c-1-0.6-2.1-1-3.4-1.2c-1.3-0.2-2.7-0.2-4-0.2c-1.3,0.1-2.2,0.1-2.7,0.1h-30.3
		l-10,37.1c-0.1,0.9,0.2,1.5,0.7,2c0.7,0.7,1.6,1.1,2.6,1.4c1,0.3,2,0.4,3,0.4c1,0,1.6,0,1.8,0h15.6c-0.4,1.2-0.7,2.5-1.1,4
		c-0.4,1.5-0.8,3.1-1.2,4.6c-0.4,1.6-0.9,3.2-1.3,4.8c-0.4,1.6-0.8,3-1.2,4.4h-24.7L624,68c0,0.9,0.2,1.6,0.7,2.1
		c0.8,0.7,1.7,1.3,2.8,1.5c1.3,0.3,2.9,0.4,4.6,0.3h24.7c1.5,0,3-0.2,4.3-0.6c1.1-0.4,2.2-0.9,3.2-1.6c1-0.7,1.7-1.7,2.1-3.2
		c0.5-1.8,1.1-4,1.9-6.7c0.7-2.7,1.5-5.6,2.3-8.5c0.8-2.9,1.5-5.8,2.3-8.7c0.7-2.8,1.4-5.3,2-7.4c0.4-1.6,0.4-2.9-0.1-3.8
		c-0.5-0.9-1.2-1.5-2-2c-1-0.5-2.1-0.8-3.4-0.9h-17.6l4.3-15.9h25.1l2.3-8.4C683.8,3.1,683.5,2.2,682.6,1.6z"/>
	<path id="XMLID_12_" class="st0" d="M626,2.1c-0.6-0.7-1.4-1.2-2.4-1.5c-1.1-0.3-2.5-0.4-4.1-0.3h-34l-18,66.8
		c-0.3,1.3,0,2.3,1.1,3c1.1,0.7,2.3,1.1,3.7,1.4c1.6,0.3,3.5,0.5,5.8,0.6h22c2,0,3.7-0.4,5-1.1c1.3-0.7,2.4-1.6,3.2-2.5
		c1-1.1,1.7-2.4,2.3-3.8c0.4-1.5,0.8-3.3,1.4-5.6c0.6-2.2,1.2-4.6,1.9-7.1c0.7-2.5,1.3-5,2-7.6c0.7-2.6,1.3-4.9,1.9-7.1
		c0.6-2.1,1.1-4,1.5-5.5c0.4-1.5,0.7-2.5,0.9-3h-21l-3.3,12.5h3.4l-4.9,17.9H587l12.4-46.4h25l2-7.3C626.8,3.9,626.6,2.8,626,2.1z"
		/>
	<polygon id="XMLID_7_" class="st0" points="554,0.2 546.3,28.7 542.9,0.2 529.1,0.2 509.8,71.9 527.3,71.9 535.5,41.3 535.2,71.9 
		552,71.9 571.2,0.2 	"/>
	<polygon id="XMLID_1_" class="st0" points="498,0.2 478.6,71.9 495.7,71.9 515,0.2 	"/>
	<path id="XMLID_18_" class="st0" d="M475,31.2c-1.1,4-2.2,7.9-3.2,11.8c-1,3.9-2,7.5-2.9,10.7c-0.9,3.2-1.6,5.9-2.2,8.2
		c-0.6,2.2-1,3.7-1.2,4.4c-0.5,1.7-1.4,2.9-2.5,3.7c-1.2,0.8-2.4,1.3-3.6,1.6c-1.4,0.3-2.9,0.4-4.6,0.2H404c-0.1,0-0.7,0-1.5,0.1
		s-1.8,0-2.8-0.2c-1-0.2-1.7-0.7-2.3-1.5c-0.6-0.8-0.7-2-0.2-3.7l11.1-40.6h-5.9l1.7-6.4h5.9l0.9-3.3H397l1.7-6.6h13.7l0.1-0.2
		l0.4-2.5h-20.6l1.8-6.6h38.3l-15.8,59.1h7.4l15.8-59.1h17.5l-15.8,59.1h7.4l15.8-59.1h18.6C480.2,11.6,477.4,21.9,475,31.2z"/>
</g>
<g id="XMLID_2_">
	<polygon id="XMLID_5_" class="st0" points="364.3,12.7 367.7,0 325.6,0 306.2,71.7 348.5,71.7 351.9,59.2 327,59.2 331.8,41.3 
		356.7,41.3 360,28.5 335.1,28.5 339.4,12.7 	"/>
	<path id="XMLID_11_" class="st0" d="M309.5,1.9c-0.6-0.7-1.4-1.2-2.4-1.5C306,0.1,304.6,0,303,0.1h-34l-18,66.8
		c-0.3,1.3,0,2.3,1.1,3c1.1,0.7,2.3,1.1,3.7,1.4c1.6,0.3,3.5,0.5,5.8,0.6h22c2,0,3.7-0.4,5-1.1c1.3-0.7,2.4-1.6,3.2-2.5
		c1-1.1,1.7-2.4,2.3-3.8c0.4-1.5,0.8-3.3,1.4-5.6c0.6-2.2,1.2-4.6,1.9-7.1c0.7-2.5,1.3-5,2-7.6c0.7-2.6,1.3-4.9,1.9-7.1
		c0.6-2.1,1.1-4,1.5-5.5c0.4-1.5,0.7-2.5,0.9-3h-21l-3.3,12.5h3.4l-4.9,17.9h-7.4l12.4-46.4h25l2-7.3C310.2,3.8,310.1,2.6,309.5,1.9
		z"/>
	<path id="XMLID_39_" class="st0" d="M252.8,2.4c-0.7-0.7-1.5-1.2-2.5-1.5c-1-0.4-2-0.6-2.9-0.7c-0.9-0.1-1.4-0.2-1.5-0.2h-33
		l-19.4,71.7h-0.3l0,0.1h17.5l8.2-30.5h7.4L218,71.8h17.5c3-11.4,5.8-21.7,8.2-31.1c1-4,2.1-7.9,3.2-11.8c1.1-3.9,2-7.5,2.9-10.8
		c0.9-3.3,1.6-6.1,2.3-8.3c0.6-2.3,1.1-3.8,1.3-4.5C253.6,4,253.5,3.1,252.8,2.4z M229.1,28.5H222l4.2-15.9c1.7,0.1,3.2,0.2,4.6,0.2
		c1.4,0,2.3-0.1,2.7-0.2L229.1,28.5z"/>
	<polygon id="XMLID_9_" class="st0" points="161.9,0 158.5,12.6 171.2,12.6 155.3,71.7 155.3,71.7 155.2,71.8 172.6,71.8 
		188.4,12.6 200.3,12.6 200.3,12.6 203.7,0 	"/>
	<polygon id="XMLID_6_" class="st0" points="135.3,0.1 127.6,28.5 124.2,0.1 110.4,0.1 91.1,71.8 108.6,71.8 116.8,41.1 116.5,71.8 
		133.3,71.8 152.5,0.1 	"/>
	<polygon id="XMLID_37_" class="st0" points="79.3,0.1 59.9,71.8 77,71.8 96.3,0.1 	"/>
	<path id="XMLID_10_" class="st0" d="M52.8,44.2L35.9,71.8H13.8l-3.4-27.5l5-18.4H9.8l1.8-6.6H17l0.9-3.2H4.5l1.8-6.6h13.4l0.1-0.3
		c0-0.1,0-0.2,0.1-0.3c0.1-0.1,0.1-0.4,0.2-0.7c0.1-0.3,0.2-0.8,0.3-1.4H0L1.8,0h37.9L26.5,48.9h7.6L47.3,0h17.3L52.8,44.2z"/>
</g>
</svg>
